STARTFONT 2.1
COMMENT $XConsortium: lubI12.bdf,v 1.9 94/04/02 16:00:57 gildea Exp $
COMMENT  (c) Copyright Bigelow & Holmes 1986, 1985. Lucida is a registered
COMMENT  trademark of Bigelow & Holmes. See LEGAL NOTICE file for terms 
COMMENT  of the license. 
COMMENT  
COMMENT  Translation to ISO8859-2 by Cub Soft;  Petr.Kolar@vslib.cz
COMMENT  
FONT -B&H-LucidaBright-Medium-I-Normal--12-120-75-75-P-67-ISO8859-2
SIZE 12 72 72
FONTBOUNDINGBOX 20 15 -6 -3
STARTPROPERTIES 20
COMMENT Begin LogicalFontDescription
FONTNAME_REGISTRY ""
FOUNDRY "B&H"
FAMILY_NAME "LucidaBright"
WEIGHT_NAME "Medium"
SLANT "I"
SETWIDTH_NAME "Normal"
ADD_STYLE_NAME ""
PIXEL_SIZE 12
POINT_SIZE 120
RESOLUTION_X 75
RESOLUTION_Y 75
SPACING "P"
AVERAGE_WIDTH 67
CHARSET_REGISTRY "ISO8859"
CHARSET_ENCODING "2"
COMMENT END LogicalFontDescription
FONT_ASCENT 11
FONT_DESCENT 3
DEFAULT_CHAR 0
COPYRIGHT "Copyright Bigelow & Holmes 1986, 1985., Copyright 1996 Cub Soft"
FACE_NAME "Lucida Bright Italic"
ENDPROPERTIES
CHARS 191
STARTCHAR space
ENCODING 32
SWIDTH 333 0
DWIDTH 3 0
BBX 1 1 0 0
BITMAP
00
ENDCHAR
STARTCHAR exclam
ENCODING 33
SWIDTH 265 0
DWIDTH 3 0
BBX 3 9 1 0
BITMAP
20
20
40
40
40
40
40
00
80
ENDCHAR
STARTCHAR quotedbl
ENCODING 34
SWIDTH 377 0
DWIDTH 5 0
BBX 3 3 2 6
BITMAP
a0
a0
a0
ENDCHAR
STARTCHAR numbersign
ENCODING 35
SWIDTH 608 0
DWIDTH 7 0
BBX 7 9 1 0
BITMAP
1a
14
7e
28
28
fc
50
90
b0
ENDCHAR
STARTCHAR dollar
ENCODING 36
SWIDTH 608 0
DWIDTH 7 0
BBX 6 10 2 -1
BITMAP
3c
54
50
70
10
28
28
a8
f0
40
ENDCHAR
STARTCHAR percent
ENCODING 37
SWIDTH 759 0
DWIDTH 9 0
BBX 9 9 1 0
BITMAP
7180
5200
5600
6800
0e00
1500
2900
4900
8600
ENDCHAR
STARTCHAR ampersand
ENCODING 38
SWIDTH 727 0
DWIDTH 9 0
BBX 8 9 1 0
BITMAP
1c
34
24
38
57
9a
8e
cc
76
ENDCHAR
STARTCHAR apostrophe
ENCODING 39
SWIDTH 265 0
DWIDTH 3 0
BBX 2 3 2 6
BITMAP
c0
40
c0
ENDCHAR
STARTCHAR parenleft
ENCODING 40
SWIDTH 310 0
DWIDTH 4 0
BBX 4 11 1 -2
BITMAP
10
20
40
40
c0
80
80
80
80
80
40
ENDCHAR
STARTCHAR parenright
ENCODING 41
SWIDTH 310 0
DWIDTH 4 0
BBX 4 11 0 -2
BITMAP
20
10
10
10
10
10
20
20
20
40
80
ENDCHAR
STARTCHAR asterisk
ENCODING 42
SWIDTH 458 0
DWIDTH 5 0
BBX 4 4 2 5
BITMAP
20
f0
60
a0
ENDCHAR
STARTCHAR plus
ENCODING 43
SWIDTH 608 0
DWIDTH 7 0
BBX 7 8 1 0
BITMAP
18
10
10
10
fe
10
10
10
ENDCHAR
STARTCHAR comma
ENCODING 44
SWIDTH 265 0
DWIDTH 3 0
BBX 2 3 1 -2
BITMAP
c0
40
80
ENDCHAR
STARTCHAR minus
ENCODING 45
SWIDTH 608 0
DWIDTH 7 0
BBX 7 1 1 3
BITMAP
fe
ENDCHAR
STARTCHAR period
ENCODING 46
SWIDTH 265 0
DWIDTH 3 0
BBX 2 1 1 0
BITMAP
c0
ENDCHAR
STARTCHAR slash
ENCODING 47
SWIDTH 458 0
DWIDTH 5 0
BBX 8 11 0 -2
BITMAP
01
02
04
04
08
10
10
20
40
40
80
ENDCHAR
STARTCHAR zero
ENCODING 48
SWIDTH 608 0
DWIDTH 7 0
BBX 6 9 1 0
BITMAP
18
64
44
c4
84
84
8c
c8
70
ENDCHAR
STARTCHAR one
ENCODING 49
SWIDTH 608 0
DWIDTH 7 0
BBX 5 9 1 0
BITMAP
38
18
10
10
10
10
30
20
f8
ENDCHAR
STARTCHAR two
ENCODING 50
SWIDTH 608 0
DWIDTH 7 0
BBX 7 9 1 0
BITMAP
3c
26
22
06
08
30
40
40
fc
ENDCHAR
STARTCHAR three
ENCODING 51
SWIDTH 608 0
DWIDTH 7 0
BBX 6 9 1 0
BITMAP
38
24
04
0c
38
08
0c
88
f0
ENDCHAR
STARTCHAR four
ENCODING 52
SWIDTH 608 0
DWIDTH 7 0
BBX 6 9 1 0
BITMAP
0c
14
28
48
88
fc
08
10
38
ENDCHAR
STARTCHAR five
ENCODING 53
SWIDTH 608 0
DWIDTH 7 0
BBX 6 9 1 0
BITMAP
3c
20
40
70
08
08
08
98
f0
ENDCHAR
STARTCHAR six
ENCODING 54
SWIDTH 608 0
DWIDTH 7 0
BBX 6 9 1 0
BITMAP
1c
24
40
f8
cc
84
8c
c8
70
ENDCHAR
STARTCHAR seven
ENCODING 55
SWIDTH 608 0
DWIDTH 7 0
BBX 7 9 2 0
BITMAP
7e
02
04
18
10
20
40
40
80
ENDCHAR
STARTCHAR eight
ENCODING 56
SWIDTH 608 0
DWIDTH 7 0
BBX 6 9 2 0
BITMAP
38
64
44
68
38
c8
88
88
70
ENDCHAR
STARTCHAR nine
ENCODING 57
SWIDTH 608 0
DWIDTH 7 0
BBX 6 9 1 0
BITMAP
38
64
44
44
44
7c
0c
98
f0
ENDCHAR
STARTCHAR colon
ENCODING 58
SWIDTH 265 0
DWIDTH 3 0
BBX 3 6 1 0
BITMAP
60
00
00
00
00
c0
ENDCHAR
STARTCHAR semicolon
ENCODING 59
SWIDTH 265 0
DWIDTH 3 0
BBX 3 8 1 -2
BITMAP
60
00
00
00
40
c0
40
80
ENDCHAR
STARTCHAR less
ENCODING 60
SWIDTH 608 0
DWIDTH 7 0
BBX 8 8 1 0
BITMAP
01
06
18
e0
60
10
0c
02
ENDCHAR
STARTCHAR equal
ENCODING 61
SWIDTH 608 0
DWIDTH 7 0
BBX 7 3 1 2
BITMAP
fe
00
fe
ENDCHAR
STARTCHAR greater
ENCODING 62
SWIDTH 608 0
DWIDTH 7 0
BBX 8 8 0 0
BITMAP
60
10
0c
02
03
0c
70
80
ENDCHAR
STARTCHAR question
ENCODING 63
SWIDTH 471 0
DWIDTH 6 0
BBX 5 9 2 0
BITMAP
70
98
98
10
20
40
c0
00
80
ENDCHAR
STARTCHAR at
ENCODING 64
SWIDTH 861 0
DWIDTH 10 0
BBX 10 9 1 0
BITMAP
1f00
2080
4e40
9240
a240
ae80
9b00
4000
3c00
ENDCHAR
STARTCHAR A
ENCODING 65
SWIDTH 747 0
DWIDTH 9 0
BBX 9 9 0 0
BITMAP
0600
0600
0a00
1a00
1200
3f00
4100
4100
e380
ENDCHAR
STARTCHAR B
ENCODING 66
SWIDTH 606 0
DWIDTH 7 0
BBX 7 9 0 0
BITMAP
3e
32
22
24
38
24
66
44
f8
ENDCHAR
STARTCHAR C
ENCODING 67
SWIDTH 714 0
DWIDTH 9 0
BBX 8 9 1 0
BITMAP
1f
31
41
c0
80
80
80
c2
7c
ENDCHAR
STARTCHAR D
ENCODING 68
SWIDTH 770 0
DWIDTH 9 0
BBX 9 9 0 0
BITMAP
3f00
3180
3080
2080
2080
2180
6100
6200
fc00
ENDCHAR
STARTCHAR E
ENCODING 69
SWIDTH 569 0
DWIDTH 7 0
BBX 8 9 0 0
BITMAP
3f
11
10
32
3c
24
20
62
fe
ENDCHAR
STARTCHAR F
ENCODING 70
SWIDTH 551 0
DWIDTH 7 0
BBX 8 9 0 0
BITMAP
3f
11
10
32
3c
24
20
60
f0
ENDCHAR
STARTCHAR G
ENCODING 71
SWIDTH 756 0
DWIDTH 9 0
BBX 8 9 1 0
BITMAP
1f
31
40
c0
80
87
82
c6
7c
ENDCHAR
STARTCHAR H
ENCODING 72
SWIDTH 776 0
DWIDTH 9 0
BBX 10 9 1 0
BITMAP
39c0
3080
3180
2100
3f00
2100
6300
4300
e700
ENDCHAR
STARTCHAR I
ENCODING 73
SWIDTH 325 0
DWIDTH 4 0
BBX 5 9 0 0
BITMAP
38
30
30
20
20
20
60
60
e0
ENDCHAR
STARTCHAR J
ENCODING 74
SWIDTH 422 0
DWIDTH 5 0
BBX 7 11 0 -2
BITMAP
1e
0c
08
08
08
08
18
10
10
90
e0
ENDCHAR
STARTCHAR K
ENCODING 75
SWIDTH 698 0
DWIDTH 8 0
BBX 9 9 0 0
BITMAP
3b80
1300
3600
2800
3800
2800
6400
6600
e700
ENDCHAR
STARTCHAR L
ENCODING 76
SWIDTH 572 0
DWIDTH 7 0
BBX 7 9 0 0
BITMAP
38
10
10
20
20
20
20
62
fe
ENDCHAR
STARTCHAR M
ENCODING 77
SWIDTH 865 0
DWIDTH 10 0
BBX 12 9 0 0
BITMAP
3070
10e0
38c0
2940
2b40
2a40
2480
4080
e1c0
ENDCHAR
STARTCHAR N
ENCODING 78
SWIDTH 762 0
DWIDTH 9 0
BBX 10 9 0 0
BITMAP
30c0
1080
3880
2880
2480
2680
4300
4300
e100
ENDCHAR
STARTCHAR O
ENCODING 79
SWIDTH 783 0
DWIDTH 9 0
BBX 8 9 1 0
BITMAP
1e
23
41
41
81
81
82
c6
78
ENDCHAR
STARTCHAR P
ENCODING 80
SWIDTH 579 0
DWIDTH 7 0
BBX 8 9 0 0
BITMAP
3e
11
31
22
3c
20
60
60
f0
ENDCHAR
STARTCHAR Q
ENCODING 81
SWIDTH 788 0
DWIDTH 9 0
BBX 10 11 1 -2
BITMAP
1e00
2300
4100
4100
8100
8100
8200
c600
7800
0c00
03c0
ENDCHAR
STARTCHAR R
ENCODING 82
SWIDTH 686 0
DWIDTH 8 0
BBX 8 9 0 0
BITMAP
3e
13
32
22
3c
2c
64
66
f3
ENDCHAR
STARTCHAR S
ENCODING 83
SWIDTH 549 0
DWIDTH 7 0
BBX 7 9 1 0
BITMAP
3c
22
62
20
18
0c
84
8c
f8
ENDCHAR
STARTCHAR T
ENCODING 84
SWIDTH 663 0
DWIDTH 8 0
BBX 8 9 2 0
BITMAP
ff
99
10
10
10
30
20
20
f0
ENDCHAR
STARTCHAR U
ENCODING 85
SWIDTH 727 0
DWIDTH 9 0
BBX 9 9 2 0
BITMAP
f380
4100
4200
4200
c200
8200
8200
c400
7800
ENDCHAR
STARTCHAR V
ENCODING 86
SWIDTH 656 0
DWIDTH 8 0
BBX 9 9 1 0
BITMAP
e180
4100
4300
6200
6400
2c00
2800
3000
3000
ENDCHAR
STARTCHAR W
ENCODING 87
SWIDTH 878 0
DWIDTH 11 0
BBX 11 9 1 0
BITMAP
e460
4440
4c40
4c80
5580
5500
6700
6600
4600
ENDCHAR
STARTCHAR X
ENCODING 88
SWIDTH 624 0
DWIDTH 7 0
BBX 10 9 0 0
BITMAP
38c0
1080
0900
0e00
0400
0e00
1200
6300
e700
ENDCHAR
STARTCHAR Y
ENCODING 89
SWIDTH 663 0
DWIDTH 8 0
BBX 8 9 2 0
BITMAP
e3
42
64
28
30
30
20
20
70
ENDCHAR
STARTCHAR Z
ENCODING 90
SWIDTH 633 0
DWIDTH 8 0
BBX 8 9 1 0
BITMAP
3f
22
04
0c
18
30
20
42
fe
ENDCHAR
STARTCHAR bracketleft
ENCODING 91
SWIDTH 310 0
DWIDTH 4 0
BBX 5 11 0 -2
BITMAP
38
20
20
20
60
40
40
40
40
80
e0
ENDCHAR
STARTCHAR backslash
ENCODING 92
SWIDTH 458 0
DWIDTH 5 0
BBX 3 11 2 -2
BITMAP
80
80
40
40
40
40
40
40
40
20
20
ENDCHAR
STARTCHAR bracketright
ENCODING 93
SWIDTH 310 0
DWIDTH 4 0
BBX 4 11 0 -2
BITMAP
30
10
10
20
20
20
20
20
20
40
c0
ENDCHAR
STARTCHAR asciicircum
ENCODING 94
SWIDTH 608 0
DWIDTH 7 0
BBX 7 8 0 1
BITMAP
08
08
14
24
24
44
42
82
ENDCHAR
STARTCHAR underscore
ENCODING 95
SWIDTH 500 0
DWIDTH 6 0
BBX 5 1 1 -1
BITMAP
f8
ENDCHAR
STARTCHAR grave
ENCODING 96
SWIDTH 560 0
DWIDTH 7 0
BBX 2 2 4 7
BITMAP
80
40
ENDCHAR
STARTCHAR a
ENCODING 97
SWIDTH 608 0
DWIDTH 7 0
BBX 6 6 1 0
BITMAP
3c
44
48
88
98
ec
ENDCHAR
STARTCHAR b
ENCODING 98
SWIDTH 596 0
DWIDTH 7 0
BBX 6 9 1 0
BITMAP
60
40
40
5c
64
64
48
88
f0
ENDCHAR
STARTCHAR c
ENCODING 99
SWIDTH 487 0
DWIDTH 6 0
BBX 5 6 1 0
BITMAP
38
48
80
80
88
70
ENDCHAR
STARTCHAR d
ENCODING 100
SWIDTH 608 0
DWIDTH 7 0
BBX 7 9 1 0
BITMAP
06
02
04
3c
44
44
8c
98
ec
ENDCHAR
STARTCHAR e
ENCODING 101
SWIDTH 518 0
DWIDTH 6 0
BBX 5 6 1 0
BITMAP
38
48
88
f0
88
70
ENDCHAR
STARTCHAR f
ENCODING 102
SWIDTH 380 0
DWIDTH 5 0
BBX 6 11 1 -2
BITMAP
1c
24
20
78
20
40
40
40
40
c0
80
ENDCHAR
STARTCHAR g
ENCODING 103
SWIDTH 602 0
DWIDTH 7 0
BBX 7 8 0 -2
BITMAP
1e
22
44
44
dc
74
88
f0
ENDCHAR
STARTCHAR h
ENCODING 104
SWIDTH 631 0
DWIDTH 8 0
BBX 6 9 1 0
BITMAP
60
20
40
5c
74
4c
48
88
8c
ENDCHAR
STARTCHAR i
ENCODING 105
SWIDTH 289 0
DWIDTH 3 0
BBX 3 9 1 0
BITMAP
20
00
00
e0
40
40
40
80
c0
ENDCHAR
STARTCHAR j
ENCODING 106
SWIDTH 343 0
DWIDTH 4 0
BBX 6 11 0 -2
BITMAP
04
00
00
1c
08
08
08
18
10
90
e0
ENDCHAR
STARTCHAR k
ENCODING 107
SWIDTH 560 0
DWIDTH 7 0
BBX 6 9 1 0
BITMAP
60
20
40
44
58
60
70
98
8c
ENDCHAR
STARTCHAR l
ENCODING 108
SWIDTH 289 0
DWIDTH 3 0
BBX 3 9 1 0
BITMAP
60
20
40
40
40
40
40
80
c0
ENDCHAR
STARTCHAR m
ENCODING 109
SWIDTH 944 0
DWIDTH 11 0
BBX 10 6 1 0
BITMAP
ddc0
7740
66c0
4c80
c880
88c0
ENDCHAR
STARTCHAR n
ENCODING 110
SWIDTH 631 0
DWIDTH 8 0
BBX 6 6 1 0
BITMAP
dc
54
6c
48
88
8c
ENDCHAR
STARTCHAR o
ENCODING 111
SWIDTH 560 0
DWIDTH 7 0
BBX 6 6 1 0
BITMAP
38
44
c4
8c
88
f0
ENDCHAR
STARTCHAR p
ENCODING 112
SWIDTH 608 0
DWIDTH 7 0
BBX 7 8 1 -2
BITMAP
6e
72
62
44
44
78
c0
80
ENDCHAR
STARTCHAR q
ENCODING 113
SWIDTH 599 0
DWIDTH 7 0
BBX 6 8 1 -2
BITMAP
3c
44
48
88
98
e8
08
10
ENDCHAR
STARTCHAR r
ENCODING 114
SWIDTH 470 0
DWIDTH 6 0
BBX 5 6 1 0
BITMAP
d8
68
60
40
80
80
ENDCHAR
STARTCHAR s
ENCODING 115
SWIDTH 440 0
DWIDTH 5 0
BBX 5 6 1 0
BITMAP
78
50
60
b0
90
e0
ENDCHAR
STARTCHAR t
ENCODING 116
SWIDTH 355 0
DWIDTH 4 0
BBX 4 9 1 0
BITMAP
20
40
40
f0
40
40
c0
80
e0
ENDCHAR
STARTCHAR u
ENCODING 117
SWIDTH 630 0
DWIDTH 8 0
BBX 6 6 1 0
BITMAP
cc
44
4c
d8
98
ec
ENDCHAR
STARTCHAR v
ENCODING 118
SWIDTH 558 0
DWIDTH 7 0
BBX 7 6 1 0
BITMAP
c6
62
24
28
30
30
ENDCHAR
STARTCHAR w
ENCODING 119
SWIDTH 805 0
DWIDTH 10 0
BBX 9 6 1 0
BITMAP
c480
4c80
2d80
3500
3600
2600
ENDCHAR
STARTCHAR x
ENCODING 120
SWIDTH 510 0
DWIDTH 6 0
BBX 6 6 1 0
BITMAP
e4
28
30
30
d8
8c
ENDCHAR
STARTCHAR y
ENCODING 121
SWIDTH 558 0
DWIDTH 7 0
BBX 8 8 0 -2
BITMAP
63
22
36
14
18
10
20
c0
ENDCHAR
STARTCHAR z
ENCODING 122
SWIDTH 536 0
DWIDTH 6 0
BBX 6 6 1 0
BITMAP
7c
48
10
20
48
f8
ENDCHAR
STARTCHAR braceleft
ENCODING 123
SWIDTH 337 0
DWIDTH 4 0
BBX 4 11 1 -2
BITMAP
30
20
20
20
40
80
40
40
80
80
40
ENDCHAR
STARTCHAR bar
ENCODING 124
SWIDTH 241 0
DWIDTH 3 0
BBX 3 11 1 -2
BITMAP
20
20
20
40
40
40
40
40
80
80
80
ENDCHAR
STARTCHAR braceright
ENCODING 125
SWIDTH 337 0
DWIDTH 4 0
BBX 4 11 1 -2
BITMAP
30
10
10
20
20
10
20
40
40
40
c0
ENDCHAR
STARTCHAR asciitilde
ENCODING 126
SWIDTH 608 0
DWIDTH 7 0
BBX 7 3 1 2
BITMAP
62
92
8c
ENDCHAR
STARTCHAR nobreakspace
ENCODING 160
SWIDTH 333 0
DWIDTH 3 0
BBX 1 1 0 0
BITMAP
00
ENDCHAR
STARTCHAR Aogonek
ENCODING 161
SWIDTH 747 0
DWIDTH 9 0
BBX 9 11 0 -2
BITMAP
0600
0600
0a00
1a00
1200
3f00
4100
4100
e380
0c00
0c00
ENDCHAR
STARTCHAR breve
ENCODING 162
SWIDTH 560 0
DWIDTH 7 0
BBX 4 2 3 7
BITMAP
90
e0
ENDCHAR
STARTCHAR Lstroke
ENCODING 163
SWIDTH 572 0
DWIDTH 7 0
BBX 7 9 0 0
BITMAP
38
10
10
38
70
e0
20
62
fe
ENDCHAR
STARTCHAR currency
ENCODING 164
SWIDTH 608 0
DWIDTH 7 0
BBX 8 8 0 0
BITMAP
41
3e
22
22
42
24
5c
82
ENDCHAR
STARTCHAR Lcaron
ENCODING 165
SWIDTH 666 0
DWIDTH 8 0
BBX 8 10 0 0
BITMAP
03
39
13
10
20
20
20
20
62
fe
ENDCHAR
STARTCHAR Sacute
ENCODING 166
SWIDTH 549 0
DWIDTH 7 0
BBX 7 12 1 0
BITMAP
06
08
00
3c
22
62
20
18
0c
84
8c
f8
ENDCHAR
STARTCHAR section
ENCODING 167
SWIDTH 608 0
DWIDTH 7 0
BBX 6 11 1 -2
BITMAP
1c
24
20
30
5c
44
34
08
04
8c
f8
ENDCHAR
STARTCHAR diaeresis
ENCODING 168
SWIDTH 560 0
DWIDTH 7 0
BBX 4 1 3 8
BITMAP
90
ENDCHAR
STARTCHAR Scaron
ENCODING 169
SWIDTH 549 0
DWIDTH 7 0
BBX 7 12 1 0
BITMAP
12
0c
00
3c
22
62
20
18
0c
84
8c
f8
ENDCHAR
STARTCHAR Scedilla
ENCODING 170
SWIDTH 549 0
DWIDTH 7 0
BBX 7 11 1 -2
BITMAP
3c
22
62
20
18
0c
84
8c
f8
08
18
ENDCHAR
STARTCHAR Tcaron
ENCODING 171
SWIDTH 663 0
DWIDTH 8 0
BBX 8 12 2 0
BITMAP
24
18
00
ff
99
10
10
10
30
20
20
f0
ENDCHAR
STARTCHAR Zacute
ENCODING 172
SWIDTH 633 0
DWIDTH 8 0
BBX 8 12 1 0
BITMAP
06
08
00
3f
22
04
0c
18
30
20
42
fe
ENDCHAR
STARTCHAR hyphen
ENCODING 173
SWIDTH 313 0
DWIDTH 4 0
BBX 3 1 1 3
BITMAP
e0
ENDCHAR
STARTCHAR Zcaron
ENCODING 174
SWIDTH 633 0
DWIDTH 8 0
BBX 8 12 1 0
BITMAP
12
0c
00
3f
22
04
0c
18
30
20
42
fe
ENDCHAR
STARTCHAR Zabovedot
ENCODING 175
SWIDTH 633 0
DWIDTH 8 0
BBX 8 11 1 0
BITMAP
08
00
3f
22
04
0c
18
30
20
42
fe
ENDCHAR
STARTCHAR degree
ENCODING 176
SWIDTH 277 0
DWIDTH 3 0
BBX 2 2 2 7
BITMAP
c0
c0
ENDCHAR
STARTCHAR aogonek
ENCODING 177
SWIDTH 608 0
DWIDTH 7 0
BBX 6 8 1 -2
BITMAP
3c
44
48
88
98
ec
30
30
ENDCHAR
STARTCHAR ogonek
ENCODING 178
SWIDTH 560 0
DWIDTH 7 0
BBX 2 2 2 -2
BITMAP
c0
c0
ENDCHAR
STARTCHAR lstroke
ENCODING 179
SWIDTH 289 0
DWIDTH 3 0
BBX 4 9 1 0
BITMAP
70
20
20
20
f0
40
40
40
e0
ENDCHAR
STARTCHAR acute
ENCODING 180
SWIDTH 560 0
DWIDTH 7 0
BBX 3 2 4 7
BITMAP
60
80
ENDCHAR
STARTCHAR lcaron
ENCODING 181
SWIDTH 500 0
DWIDTH 6 0
BBX 6 10 1 0
BITMAP
0c
64
2c
40
40
40
40
40
80
c0
ENDCHAR
STARTCHAR sacute
ENCODING 182
SWIDTH 440 0
DWIDTH 5 0
BBX 5 9 1 0
BITMAP
18
20
00
78
50
60
b0
90
e0
ENDCHAR
STARTCHAR caron
ENCODING 183
SWIDTH 560 0
DWIDTH 7 0
BBX 4 2 3 7
BITMAP
90
60
ENDCHAR
STARTCHAR cedilla
ENCODING 184
SWIDTH 560 0
DWIDTH 7 0
BBX 2 2 2 -2
BITMAP
40
c0
ENDCHAR
STARTCHAR scaron
ENCODING 185
SWIDTH 440 0
DWIDTH 5 0
BBX 5 9 1 0
BITMAP
48
30
00
78
50
60
b0
90
e0
ENDCHAR
STARTCHAR scedilla
ENCODING 186
SWIDTH 440 0
DWIDTH 5 0
BBX 5 8 1 -2
BITMAP
78
50
60
b0
90
e0
10
30
ENDCHAR
STARTCHAR tcaron
ENCODING 187
SWIDTH 500 0
DWIDTH 6 0
BBX 6 10 1 0
BITMAP
0c
24
4c
40
f0
40
40
c0
80
e0
ENDCHAR
STARTCHAR zacute
ENCODING 188
SWIDTH 536 0
DWIDTH 6 0
BBX 6 9 1 0
BITMAP
0c
10
00
7c
48
10
20
48
f8
ENDCHAR
STARTCHAR doubleacute
ENCODING 189
SWIDTH 560 0
DWIDTH 7 0
BBX 4 2 4 7
BITMAP
70
c0
ENDCHAR
STARTCHAR zcaron
ENCODING 190
SWIDTH 536 0
DWIDTH 6 0
BBX 6 9 1 0
BITMAP
24
18
00
7c
48
10
20
48
f8
ENDCHAR
STARTCHAR zabovedot
ENCODING 191
SWIDTH 536 0
DWIDTH 6 0
BBX 6 8 1 0
BITMAP
10
00
7c
48
10
20
48
f8
ENDCHAR
STARTCHAR Racute
ENCODING 192
SWIDTH 686 0
DWIDTH 8 0
BBX 8 12 0 0
BITMAP
06
08
00
3e
13
32
22
3c
2c
64
66
f3
ENDCHAR
STARTCHAR Aacute
ENCODING 193
SWIDTH 747 0
DWIDTH 9 0
BBX 9 12 0 0
BITMAP
0180
0200
0000
0600
0600
0a00
1a00
1200
3f00
4100
4100
e380
ENDCHAR
STARTCHAR Acircumflex
ENCODING 194
SWIDTH 747 0
DWIDTH 9 0
BBX 9 12 0 0
BITMAP
0600
0900
0000
0600
0600
0a00
1a00
1200
3f00
4100
4100
e380
ENDCHAR
STARTCHAR Abreve
ENCODING 195
SWIDTH 747 0
DWIDTH 9 0
BBX 9 12 0 0
BITMAP
0900
0e00
0000
0600
0600
0a00
1a00
1200
3f00
4100
4100
e380
ENDCHAR
STARTCHAR Adiaeresis
ENCODING 196
SWIDTH 747 0
DWIDTH 9 0
BBX 9 11 0 0
BITMAP
0480
0000
0600
0600
0a00
1a00
1200
3f00
4100
4100
e380
ENDCHAR
STARTCHAR Lacute
ENCODING 197
SWIDTH 572 0
DWIDTH 7 0
BBX 7 12 0 0
BITMAP
0c
10
00
38
10
10
20
20
20
20
62
fe
ENDCHAR
STARTCHAR Cacute
ENCODING 198
SWIDTH 714 0
DWIDTH 9 0
BBX 8 12 1 0
BITMAP
06
08
00
1f
31
41
c0
80
80
80
c2
7c
ENDCHAR
STARTCHAR Ccedilla
ENCODING 199
SWIDTH 714 0
DWIDTH 9 0
BBX 8 11 1 -2
BITMAP
1f
31
41
c0
80
80
80
c2
7c
10
30
ENDCHAR
STARTCHAR Ccaron
ENCODING 200
SWIDTH 714 0
DWIDTH 9 0
BBX 8 12 1 0
BITMAP
12
0c
00
1f
31
41
c0
80
80
80
c2
7c
ENDCHAR
STARTCHAR Eacute
ENCODING 201
SWIDTH 569 0
DWIDTH 7 0
BBX 8 12 0 0
BITMAP
06
08
00
3f
11
10
32
3c
24
20
62
fe
ENDCHAR
STARTCHAR Eogonek
ENCODING 202
SWIDTH 569 0
DWIDTH 7 0
BBX 8 11 0 -2
BITMAP
3f
11
10
32
3c
24
20
62
fe
18
18
ENDCHAR
STARTCHAR Ediaeresis
ENCODING 203
SWIDTH 569 0
DWIDTH 7 0
BBX 8 11 0 0
BITMAP
12
00
3f
11
10
32
3c
24
20
62
fe
ENDCHAR
STARTCHAR Ecaron
ENCODING 204
SWIDTH 569 0
DWIDTH 7 0
BBX 8 12 0 0
BITMAP
12
0c
00
3f
11
10
32
3c
24
20
62
fe
ENDCHAR
STARTCHAR Iacute
ENCODING 205
SWIDTH 325 0
DWIDTH 4 0
BBX 6 12 0 0
BITMAP
0c
10
00
38
30
30
20
20
20
60
60
e0
ENDCHAR
STARTCHAR Icircumflex
ENCODING 206
SWIDTH 325 0
DWIDTH 4 0
BBX 6 12 0 0
BITMAP
18
24
00
38
30
30
20
20
20
60
60
e0
ENDCHAR
STARTCHAR Dcaron
ENCODING 207
SWIDTH 770 0
DWIDTH 9 0
BBX 9 12 0 0
BITMAP
0900
0600
0000
3f00
3180
3080
2080
2080
2180
6100
6200
fc00
ENDCHAR
STARTCHAR Dstroke
ENCODING 208
SWIDTH 770 0
DWIDTH 9 0
BBX 9 9 0 0
BITMAP
3f00
3180
3080
2080
7880
2180
2100
6200
fc00
ENDCHAR
STARTCHAR Nacute
ENCODING 209
SWIDTH 762 0
DWIDTH 9 0
BBX 10 12 0 0
BITMAP
0300
0400
0000
30c0
1080
3880
2880
2480
2680
4300
4300
e100
ENDCHAR
STARTCHAR Ncaron
ENCODING 210
SWIDTH 762 0
DWIDTH 9 0
BBX 10 12 0 0
BITMAP
0900
0600
0000
30c0
1080
3880
2880
2480
2680
4300
4300
e100
ENDCHAR
STARTCHAR Oacute
ENCODING 211
SWIDTH 783 0
DWIDTH 9 0
BBX 8 12 1 0
BITMAP
06
08
00
1e
23
41
41
81
81
82
c6
78
ENDCHAR
STARTCHAR Ocircumflex
ENCODING 212
SWIDTH 783 0
DWIDTH 9 0
BBX 8 12 1 0
BITMAP
0c
12
00
1e
23
41
41
81
81
82
c6
78
ENDCHAR
STARTCHAR Odoubleacute
ENCODING 213
SWIDTH 783 0
DWIDTH 9 0
BBX 8 12 1 0
BITMAP
07
0c
00
1e
23
41
41
81
81
82
c6
78
ENDCHAR
STARTCHAR Odiaeresis
ENCODING 214
SWIDTH 783 0
DWIDTH 9 0
BBX 8 11 1 0
BITMAP
12
00
1e
23
41
41
81
81
82
c6
78
ENDCHAR
STARTCHAR multiply
ENCODING 215
SWIDTH 608 0
DWIDTH 7 0
BBX 8 8 0 0
BITMAP
41
22
34
18
18
2c
44
82
ENDCHAR
STARTCHAR Rcaron
ENCODING 216
SWIDTH 686 0
DWIDTH 8 0
BBX 8 12 0 0
BITMAP
12
0c
00
3e
13
32
22
3c
2c
64
66
f3
ENDCHAR
STARTCHAR Uring
ENCODING 217
SWIDTH 727 0
DWIDTH 9 0
BBX 9 12 2 0
BITMAP
0c00
0c00
0000
f380
4100
4200
4200
c200
8200
8200
c400
7800
ENDCHAR
STARTCHAR Uacute
ENCODING 218
SWIDTH 727 0
DWIDTH 9 0
BBX 9 12 2 0
BITMAP
0600
0800
0000
f380
4100
4200
4200
c200
8200
8200
c400
7800
ENDCHAR
STARTCHAR Udoubleacute
ENCODING 219
SWIDTH 727 0
DWIDTH 9 0
BBX 9 12 2 0
BITMAP
0700
0c00
0000
f380
4100
4200
4200
c200
8200
8200
c400
7800
ENDCHAR
STARTCHAR Udiaeresis
ENCODING 220
SWIDTH 727 0
DWIDTH 9 0
BBX 9 11 2 0
BITMAP
1200
0000
f380
4100
4200
4200
c200
8200
8200
c400
7800
ENDCHAR
STARTCHAR Yacute
ENCODING 221
SWIDTH 663 0
DWIDTH 8 0
BBX 8 12 2 0
BITMAP
0c
10
00
e3
42
64
28
30
30
20
20
70
ENDCHAR
STARTCHAR Tcedilla
ENCODING 222
SWIDTH 663 0
DWIDTH 8 0
BBX 8 11 2 -2
BITMAP
ff
99
10
10
10
30
20
20
f0
08
18
ENDCHAR
STARTCHAR ssharp
ENCODING 223
SWIDTH 603 0
DWIDTH 7 0
BBX 6 11 1 -2
BITMAP
1c
24
2c
30
78
4c
44
54
5c
c0
80
ENDCHAR
STARTCHAR racute
ENCODING 224
SWIDTH 470 0
DWIDTH 6 0
BBX 5 9 1 0
BITMAP
18
20
00
d8
68
60
40
80
80
ENDCHAR
STARTCHAR aacute
ENCODING 225
SWIDTH 608 0
DWIDTH 7 0
BBX 6 9 1 0
BITMAP
0c
10
00
3c
44
48
88
98
ec
ENDCHAR
STARTCHAR acircumflex
ENCODING 226
SWIDTH 608 0
DWIDTH 7 0
BBX 6 9 1 0
BITMAP
18
24
00
3c
44
48
88
98
ec
ENDCHAR
STARTCHAR abreve
ENCODING 227
SWIDTH 608 0
DWIDTH 7 0
BBX 6 9 1 0
BITMAP
24
38
00
3c
44
48
88
98
ec
ENDCHAR
STARTCHAR adiaeresis
ENCODING 228
SWIDTH 608 0
DWIDTH 7 0
BBX 6 8 1 0
BITMAP
24
00
3c
44
48
88
98
ec
ENDCHAR
STARTCHAR lacute
ENCODING 229
SWIDTH 289 0
DWIDTH 3 0
BBX 4 12 1 0
BITMAP
30
40
00
60
20
40
40
40
40
40
80
c0
ENDCHAR
STARTCHAR cacute
ENCODING 230
SWIDTH 487 0
DWIDTH 6 0
BBX 5 9 1 0
BITMAP
18
20
00
38
48
80
80
88
70
ENDCHAR
STARTCHAR ccedilla
ENCODING 231
SWIDTH 487 0
DWIDTH 6 0
BBX 5 8 1 -2
BITMAP
38
48
80
80
88
70
20
60
ENDCHAR
STARTCHAR ccaron
ENCODING 232
SWIDTH 487 0
DWIDTH 6 0
BBX 5 9 1 0
BITMAP
48
30
00
38
48
80
80
88
70
ENDCHAR
STARTCHAR eacute
ENCODING 233
SWIDTH 518 0
DWIDTH 6 0
BBX 6 9 1 0
BITMAP
0c
10
00
38
48
88
f0
88
70
ENDCHAR
STARTCHAR eogonek
ENCODING 234
SWIDTH 518 0
DWIDTH 6 0
BBX 5 8 1 -2
BITMAP
38
48
88
f0
88
70
30
30
ENDCHAR
STARTCHAR ediaeresis
ENCODING 235
SWIDTH 518 0
DWIDTH 6 0
BBX 6 8 1 0
BITMAP
24
00
38
48
88
f0
88
70
ENDCHAR
STARTCHAR ecaron
ENCODING 236
SWIDTH 518 0
DWIDTH 6 0
BBX 5 9 1 0
BITMAP
48
30
00
38
48
88
f0
88
70
ENDCHAR
STARTCHAR iacute
ENCODING 237
SWIDTH 289 0
DWIDTH 3 0
BBX 4 9 1 0
BITMAP
30
40
00
c0
40
40
40
80
c0
ENDCHAR
STARTCHAR icircumflex
ENCODING 238
SWIDTH 289 0
DWIDTH 3 0
BBX 4 9 1 0
BITMAP
60
90
00
c0
40
40
40
80
c0
ENDCHAR
STARTCHAR dcaron
ENCODING 239
SWIDTH 833 0
DWIDTH 10 0
BBX 10 10 1 0
BITMAP
00c0
0640
02c0
0400
3c00
4400
4400
8c00
9800
ec00
ENDCHAR
STARTCHAR dstroke
ENCODING 240
SWIDTH 750 0
DWIDTH 9 0
BBX 9 9 1 0
BITMAP
0200
1f80
0400
3c00
4400
4400
8c00
9800
ec00
ENDCHAR
STARTCHAR nacute
ENCODING 241
SWIDTH 631 0
DWIDTH 8 0
BBX 6 9 1 0
BITMAP
18
20
00
dc
54
6c
48
88
8c
ENDCHAR
STARTCHAR ncaron
ENCODING 242
SWIDTH 631 0
DWIDTH 8 0
BBX 6 9 1 0
BITMAP
48
30
00
dc
54
6c
48
88
8c
ENDCHAR
STARTCHAR oacute
ENCODING 243
SWIDTH 560 0
DWIDTH 7 0
BBX 6 9 1 0
BITMAP
0c
10
00
38
44
c4
8c
88
f0
ENDCHAR
STARTCHAR ocircumflex
ENCODING 244
SWIDTH 560 0
DWIDTH 7 0
BBX 6 9 1 0
BITMAP
18
24
00
38
44
c4
8c
88
f0
ENDCHAR
STARTCHAR odoubleacute
ENCODING 245
SWIDTH 560 0
DWIDTH 7 0
BBX 7 9 1 0
BITMAP
0e
18
00
38
44
c4
8c
88
f0
ENDCHAR
STARTCHAR odiaeresis
ENCODING 246
SWIDTH 560 0
DWIDTH 7 0
BBX 6 8 1 0
BITMAP
24
00
38
44
c4
8c
88
f0
ENDCHAR
STARTCHAR division
ENCODING 247
SWIDTH 608 0
DWIDTH 7 0
BBX 7 6 1 0
BITMAP
18
00
fe
00
00
30
ENDCHAR
STARTCHAR rcaron
ENCODING 248
SWIDTH 470 0
DWIDTH 6 0
BBX 5 9 1 0
BITMAP
48
30
00
d8
68
60
40
80
80
ENDCHAR
STARTCHAR uring
ENCODING 249
SWIDTH 630 0
DWIDTH 8 0
BBX 6 9 1 0
BITMAP
30
30
00
cc
44
4c
d8
98
ec
ENDCHAR
STARTCHAR uacute
ENCODING 250
SWIDTH 630 0
DWIDTH 8 0
BBX 6 9 1 0
BITMAP
0c
10
00
cc
44
4c
d8
98
ec
ENDCHAR
STARTCHAR udoubleacute
ENCODING 251
SWIDTH 630 0
DWIDTH 8 0
BBX 6 9 1 0
BITMAP
1c
30
00
cc
44
4c
d8
98
ec
ENDCHAR
STARTCHAR udiaeresis
ENCODING 252
SWIDTH 630 0
DWIDTH 8 0
BBX 6 8 1 0
BITMAP
24
00
cc
44
4c
d8
98
ec
ENDCHAR
STARTCHAR yacute
ENCODING 253
SWIDTH 558 0
DWIDTH 7 0
BBX 8 11 0 -2
BITMAP
06
08
00
63
22
36
14
18
10
20
c0
ENDCHAR
STARTCHAR tcedilla
ENCODING 254
SWIDTH 355 0
DWIDTH 4 0
BBX 4 11 1 -2
BITMAP
20
40
40
f0
40
40
c0
80
e0
20
60
ENDCHAR
STARTCHAR abovedot
ENCODING 255
SWIDTH 560 0
DWIDTH 7 0
BBX 1 1 4 8
BITMAP
80
ENDCHAR
ENDFONT
